<svg width="126" height="126" viewBox="0 0 126 126" fill="none" xmlns="http://www.w3.org/2000/svg">
<path d="M63 125.5C28.4813 125.5 0.5 97.5187 0.5 63C0.5 28.4813 28.4813 0.5 63 0.5C97.5187 0.5 125.5 28.4813 125.5 63C125.5 97.5187 97.5187 125.5 63 125.5ZM63 113C76.2608 113 88.9785 107.732 98.3553 98.3553C107.732 88.9785 113 76.2608 113 63C113 49.7392 107.732 37.0215 98.3553 27.6447C88.9785 18.2678 76.2608 13 63 13C49.7392 13 37.0215 18.2678 27.6447 27.6447C18.2678 37.0215 13 49.7392 13 63C13 76.2608 18.2678 88.9785 27.6447 98.3553C37.0215 107.732 49.7392 113 63 113V113ZM54.3875 40.5937L84.8813 60.9187C85.2242 61.147 85.5054 61.4564 85.6999 61.8195C85.8944 62.1826 85.9962 62.5881 85.9962 63C85.9962 63.4119 85.8944 63.8174 85.6999 64.1805C85.5054 64.5436 85.2242 64.853 84.8813 65.0813L54.3813 85.4063C54.0052 85.6555 53.5686 85.7984 53.1179 85.8197C52.6673 85.841 52.2192 85.7399 51.8213 85.5272C51.4234 85.3145 51.0905 84.998 50.8579 84.6114C50.6252 84.2248 50.5016 83.7824 50.5 83.3313V42.6687C50.5008 42.2166 50.6243 41.7731 50.8572 41.3855C51.0902 40.9979 51.4239 40.6808 51.8228 40.4679C52.2217 40.255 52.6709 40.1542 53.1225 40.1764C53.5742 40.1985 54.0113 40.3428 54.3875 40.5937V40.5937Z" fill="white"/>
</svg>
