<svg width="178" height="46" viewBox="0 0 178 46" fill="none" xmlns="http://www.w3.org/2000/svg">
<rect width="178" height="46" fill="#3178C6"/>
<path fill-rule="evenodd" clip-rule="evenodd" d="M14.9861 9H39.3094C39.854 9 40.2955 9.43652 40.2955 9.975V34.025C40.2955 34.5635 39.854 35 39.3094 35H14.9861C14.4415 35 14 34.5635 14 34.025V9.975C14 9.43652 14.4415 9 14.9861 9V9ZM28.6175 22.8324V20.7H19.2591V22.8324H22.6002V32.327H25.26V22.8324H28.6175ZM29.6779 32.0763C30.1068 32.2925 30.6141 32.4547 31.1997 32.5628C31.7854 32.6709 32.4026 32.725 33.0515 32.725C33.6839 32.725 34.2846 32.6655 34.8538 32.5466C35.4229 32.4277 35.9219 32.2317 36.3508 31.9587C36.7797 31.6857 37.1193 31.329 37.3695 30.8884C37.6197 30.4478 37.7448 29.9032 37.7448 29.2545C37.7448 28.7842 37.6733 28.3721 37.5303 28.018C37.3874 27.6639 37.1812 27.349 36.9117 27.0733C36.6423 26.7976 36.3192 26.5503 35.9425 26.3314C35.5658 26.1125 35.1411 25.9057 34.6682 25.7111C34.3217 25.5705 34.011 25.434 33.7361 25.3016C33.4611 25.1692 33.2274 25.034 33.035 24.8962C32.8425 24.7583 32.6941 24.6124 32.5896 24.4583C32.4851 24.3043 32.4329 24.1299 32.4329 23.9353C32.4329 23.7569 32.4796 23.5961 32.5731 23.4529C32.6666 23.3096 32.7985 23.1866 32.969 23.0839C33.1395 22.9812 33.3484 22.9015 33.5959 22.8447C33.8433 22.788 34.1183 22.7596 34.4207 22.7596C34.6407 22.7596 34.873 22.7758 35.1177 22.8082C35.3624 22.8407 35.6085 22.8907 35.8559 22.9582C36.1034 23.0258 36.344 23.1109 36.5777 23.2137C36.8114 23.3164 37.0272 23.4353 37.2252 23.5704V21.146C36.8237 20.9946 36.3852 20.8824 35.9095 20.8095C35.4339 20.7365 34.8881 20.7 34.2722 20.7C33.6454 20.7 33.0515 20.7662 32.4906 20.8987C31.9297 21.0311 31.4362 21.2379 31.01 21.519C30.5838 21.8001 30.247 22.1582 29.9996 22.5933C29.7521 23.0285 29.6284 23.5488 29.6284 24.1542C29.6284 24.9273 29.8552 25.5868 30.3089 26.1327C30.7626 26.6787 31.4513 27.1409 32.3751 27.5193C32.7381 27.6653 33.0762 27.8085 33.3897 27.9491C33.7031 28.0896 33.9739 28.2356 34.2021 28.3869C34.4303 28.5383 34.6104 28.7031 34.7424 28.8815C34.8744 29.0599 34.9404 29.2626 34.9404 29.4897C34.9404 29.6573 34.8991 29.8127 34.8166 29.9559C34.7341 30.0992 34.609 30.2235 34.4413 30.3289C34.2736 30.4343 34.0647 30.5168 33.8145 30.5762C33.5643 30.6357 33.2714 30.6654 32.936 30.6654C32.3641 30.6654 31.7977 30.5668 31.2368 30.3695C30.676 30.1722 30.1563 29.8762 29.6779 29.4816V32.0763Z" fill="white"/>
<path d="M60.7539 13.9375V31H57.8359V13.9375H60.7539ZM66.1094 13.9375V16.2812H52.5273V13.9375H66.1094ZM70.8672 29.6172L74.3125 18.3203H77.3359L72.25 32.9336C72.1328 33.2461 71.9805 33.5859 71.793 33.9531C71.6055 34.3203 71.3594 34.668 71.0547 34.9961C70.7578 35.332 70.3867 35.6016 69.9414 35.8047C69.4961 36.0156 68.957 36.1211 68.3242 36.1211C68.0742 36.1211 67.832 36.0977 67.5977 36.0508C67.3711 36.0117 67.1562 35.9688 66.9531 35.9219L66.9414 33.7656C67.0195 33.7734 67.1133 33.7812 67.2227 33.7891C67.3398 33.7969 67.4336 33.8008 67.5039 33.8008C67.9727 33.8008 68.3633 33.7422 68.6758 33.625C68.9883 33.5156 69.2422 33.3359 69.4375 33.0859C69.6406 32.8359 69.8125 32.5 69.9531 32.0781L70.8672 29.6172ZM68.9219 18.3203L71.9336 27.8125L72.4375 30.7891L70.4805 31.293L65.875 18.3203H68.9219ZM81.7891 20.7578V35.875H78.9648V18.3203H81.5664L81.7891 20.7578ZM90.0508 24.543V24.7891C90.0508 25.7109 89.9414 26.5664 89.7227 27.3555C89.5117 28.1367 89.1953 28.8203 88.7734 29.4062C88.3594 29.9844 87.8477 30.4336 87.2383 30.7539C86.6289 31.0742 85.9258 31.2344 85.1289 31.2344C84.3398 31.2344 83.6484 31.0898 83.0547 30.8008C82.4688 30.5039 81.9727 30.0859 81.5664 29.5469C81.1602 29.0078 80.832 28.375 80.582 27.6484C80.3398 26.9141 80.168 26.1094 80.0664 25.2344V24.2852C80.168 23.3555 80.3398 22.5117 80.582 21.7539C80.832 20.9961 81.1602 20.3438 81.5664 19.7969C81.9727 19.25 82.4688 18.8281 83.0547 18.5312C83.6406 18.2344 84.3242 18.0859 85.1055 18.0859C85.9023 18.0859 86.6094 18.2422 87.2266 18.5547C87.8438 18.8594 88.3633 19.2969 88.7852 19.8672C89.207 20.4297 89.5234 21.1094 89.7344 21.9062C89.9453 22.6953 90.0508 23.5742 90.0508 24.543ZM87.2266 24.7891V24.543C87.2266 23.957 87.1719 23.4141 87.0625 22.9141C86.9531 22.4062 86.7812 21.9609 86.5469 21.5781C86.3125 21.1953 86.0117 20.8984 85.6445 20.6875C85.2852 20.4688 84.8516 20.3594 84.3438 20.3594C83.8438 20.3594 83.4141 20.4453 83.0547 20.6172C82.6953 20.7812 82.3945 21.0117 82.1523 21.3086C81.9102 21.6055 81.7227 21.9531 81.5898 22.3516C81.457 22.7422 81.3633 23.168 81.3086 23.6289V25.9023C81.4023 26.4648 81.5625 26.9805 81.7891 27.4492C82.0156 27.918 82.3359 28.293 82.75 28.5742C83.1719 28.8477 83.7109 28.9844 84.3672 28.9844C84.875 28.9844 85.3086 28.875 85.668 28.6562C86.0273 28.4375 86.3203 28.1367 86.5469 27.7539C86.7812 27.3633 86.9531 26.9141 87.0625 26.4062C87.1719 25.8984 87.2266 25.3594 87.2266 24.7891ZM98.043 31.2344C97.1055 31.2344 96.2578 31.082 95.5 30.7773C94.75 30.4648 94.1094 30.0312 93.5781 29.4766C93.0547 28.9219 92.6523 28.2695 92.3711 27.5195C92.0898 26.7695 91.9492 25.9609 91.9492 25.0938V24.625C91.9492 23.6328 92.0938 22.7344 92.3828 21.9297C92.6719 21.125 93.0742 20.4375 93.5898 19.8672C94.1055 19.2891 94.7148 18.8477 95.418 18.543C96.1211 18.2383 96.8828 18.0859 97.7031 18.0859C98.6094 18.0859 99.4023 18.2383 100.082 18.543C100.762 18.8477 101.324 19.2773 101.77 19.832C102.223 20.3789 102.559 21.0312 102.777 21.7891C103.004 22.5469 103.117 23.3828 103.117 24.2969V25.5039H93.3203V23.4766H100.328V23.2539C100.312 22.7461 100.211 22.2695 100.023 21.8242C99.8438 21.3789 99.5664 21.0195 99.1914 20.7461C98.8164 20.4727 98.3164 20.3359 97.6914 20.3359C97.2227 20.3359 96.8047 20.4375 96.4375 20.6406C96.0781 20.8359 95.7773 21.1211 95.5352 21.4961C95.293 21.8711 95.1055 22.3242 94.9727 22.8555C94.8477 23.3789 94.7852 23.9688 94.7852 24.625V25.0938C94.7852 25.6484 94.8594 26.1641 95.0078 26.6406C95.1641 27.1094 95.3906 27.5195 95.6875 27.8711C95.9844 28.2227 96.3438 28.5 96.7656 28.7031C97.1875 28.8984 97.668 28.9961 98.207 28.9961C98.8867 28.9961 99.4922 28.8594 100.023 28.5859C100.555 28.3125 101.016 27.9258 101.406 27.4258L102.895 28.8672C102.621 29.2656 102.266 29.6484 101.828 30.0156C101.391 30.375 100.855 30.668 100.223 30.8945C99.5977 31.1211 98.8711 31.2344 98.043 31.2344ZM112.434 27.5664C112.434 27.2852 112.363 27.0312 112.223 26.8047C112.082 26.5703 111.812 26.3594 111.414 26.1719C111.023 25.9844 110.445 25.8125 109.68 25.6562C109.008 25.5078 108.391 25.332 107.828 25.1289C107.273 24.918 106.797 24.6641 106.398 24.3672C106 24.0703 105.691 23.7188 105.473 23.3125C105.254 22.9062 105.145 22.4375 105.145 21.9062C105.145 21.3906 105.258 20.9023 105.484 20.4414C105.711 19.9805 106.035 19.5742 106.457 19.2227C106.879 18.8711 107.391 18.5938 107.992 18.3906C108.602 18.1875 109.281 18.0859 110.031 18.0859C111.094 18.0859 112.004 18.2656 112.762 18.625C113.527 18.9766 114.113 19.457 114.52 20.0664C114.926 20.668 115.129 21.3477 115.129 22.1055H112.305C112.305 21.7695 112.219 21.457 112.047 21.168C111.883 20.8711 111.633 20.6328 111.297 20.4531C110.961 20.2656 110.539 20.1719 110.031 20.1719C109.547 20.1719 109.145 20.25 108.824 20.4062C108.512 20.5547 108.277 20.75 108.121 20.9922C107.973 21.2344 107.898 21.5 107.898 21.7891C107.898 22 107.938 22.1914 108.016 22.3633C108.102 22.5273 108.242 22.6797 108.438 22.8203C108.633 22.9531 108.898 23.0781 109.234 23.1953C109.578 23.3125 110.008 23.4258 110.523 23.5352C111.492 23.7383 112.324 24 113.02 24.3203C113.723 24.6328 114.262 25.0391 114.637 25.5391C115.012 26.0312 115.199 26.6562 115.199 27.4141C115.199 27.9766 115.078 28.4922 114.836 28.9609C114.602 29.4219 114.258 29.8242 113.805 30.168C113.352 30.5039 112.809 30.7656 112.176 30.9531C111.551 31.1406 110.848 31.2344 110.066 31.2344C108.918 31.2344 107.945 31.0312 107.148 30.625C106.352 30.2109 105.746 29.6836 105.332 29.043C104.926 28.3945 104.723 27.7227 104.723 27.0273H107.453C107.484 27.5508 107.629 27.9688 107.887 28.2812C108.152 28.5859 108.48 28.8086 108.871 28.9492C109.27 29.082 109.68 29.1484 110.102 29.1484C110.609 29.1484 111.035 29.082 111.379 28.9492C111.723 28.8086 111.984 28.6211 112.164 28.3867C112.344 28.1445 112.434 27.8711 112.434 27.5664ZM122.852 28.9844C123.312 28.9844 123.727 28.8945 124.094 28.7148C124.469 28.5273 124.77 28.2695 124.996 27.9414C125.23 27.6133 125.359 27.2344 125.383 26.8047H128.043C128.027 27.625 127.785 28.3711 127.316 29.043C126.848 29.7148 126.227 30.25 125.453 30.6484C124.68 31.0391 123.824 31.2344 122.887 31.2344C121.918 31.2344 121.074 31.0703 120.355 30.7422C119.637 30.4062 119.039 29.9453 118.562 29.3594C118.086 28.7734 117.727 28.0977 117.484 27.332C117.25 26.5664 117.133 25.7461 117.133 24.8711V24.4609C117.133 23.5859 117.25 22.7656 117.484 22C117.727 21.2266 118.086 20.5469 118.562 19.9609C119.039 19.375 119.637 18.918 120.355 18.5898C121.074 18.2539 121.914 18.0859 122.875 18.0859C123.891 18.0859 124.781 18.2891 125.547 18.6953C126.312 19.0938 126.914 19.6523 127.352 20.3711C127.797 21.082 128.027 21.9102 128.043 22.8555H125.383C125.359 22.3867 125.242 21.9648 125.031 21.5898C124.828 21.207 124.539 20.9023 124.164 20.6758C123.797 20.4492 123.355 20.3359 122.84 20.3359C122.27 20.3359 121.797 20.4531 121.422 20.6875C121.047 20.9141 120.754 21.2266 120.543 21.625C120.332 22.0156 120.18 22.457 120.086 22.9492C120 23.4336 119.957 23.9375 119.957 24.4609V24.8711C119.957 25.3945 120 25.9023 120.086 26.3945C120.172 26.8867 120.32 27.3281 120.531 27.7188C120.75 28.1016 121.047 28.4102 121.422 28.6445C121.797 28.8711 122.273 28.9844 122.852 28.9844ZM133.047 20.7344V31H130.223V18.3203H132.918L133.047 20.7344ZM136.926 18.2383L136.902 20.8633C136.73 20.832 136.543 20.8086 136.34 20.793C136.145 20.7773 135.949 20.7695 135.754 20.7695C135.27 20.7695 134.844 20.8398 134.477 20.9805C134.109 21.1133 133.801 21.3086 133.551 21.5664C133.309 21.8164 133.121 22.1211 132.988 22.4805C132.855 22.8398 132.777 23.2422 132.754 23.6875L132.109 23.7344C132.109 22.9375 132.188 22.1992 132.344 21.5195C132.5 20.8398 132.734 20.2422 133.047 19.7266C133.367 19.2109 133.766 18.8086 134.242 18.5195C134.727 18.2305 135.285 18.0859 135.918 18.0859C136.09 18.0859 136.273 18.1016 136.469 18.1328C136.672 18.1641 136.824 18.1992 136.926 18.2383ZM141.719 18.3203V31H138.883V18.3203H141.719ZM138.695 14.9922C138.695 14.5625 138.836 14.207 139.117 13.9258C139.406 13.6367 139.805 13.4922 140.312 13.4922C140.812 13.4922 141.207 13.6367 141.496 13.9258C141.785 14.207 141.93 14.5625 141.93 14.9922C141.93 15.4141 141.785 15.7656 141.496 16.0469C141.207 16.3281 140.812 16.4688 140.312 16.4688C139.805 16.4688 139.406 16.3281 139.117 16.0469C138.836 15.7656 138.695 15.4141 138.695 14.9922ZM147.648 20.7578V35.875H144.824V18.3203H147.426L147.648 20.7578ZM155.91 24.543V24.7891C155.91 25.7109 155.801 26.5664 155.582 27.3555C155.371 28.1367 155.055 28.8203 154.633 29.4062C154.219 29.9844 153.707 30.4336 153.098 30.7539C152.488 31.0742 151.785 31.2344 150.988 31.2344C150.199 31.2344 149.508 31.0898 148.914 30.8008C148.328 30.5039 147.832 30.0859 147.426 29.5469C147.02 29.0078 146.691 28.375 146.441 27.6484C146.199 26.9141 146.027 26.1094 145.926 25.2344V24.2852C146.027 23.3555 146.199 22.5117 146.441 21.7539C146.691 20.9961 147.02 20.3438 147.426 19.7969C147.832 19.25 148.328 18.8281 148.914 18.5312C149.5 18.2344 150.184 18.0859 150.965 18.0859C151.762 18.0859 152.469 18.2422 153.086 18.5547C153.703 18.8594 154.223 19.2969 154.645 19.8672C155.066 20.4297 155.383 21.1094 155.594 21.9062C155.805 22.6953 155.91 23.5742 155.91 24.543ZM153.086 24.7891V24.543C153.086 23.957 153.031 23.4141 152.922 22.9141C152.812 22.4062 152.641 21.9609 152.406 21.5781C152.172 21.1953 151.871 20.8984 151.504 20.6875C151.145 20.4688 150.711 20.3594 150.203 20.3594C149.703 20.3594 149.273 20.4453 148.914 20.6172C148.555 20.7812 148.254 21.0117 148.012 21.3086C147.77 21.6055 147.582 21.9531 147.449 22.3516C147.316 22.7422 147.223 23.168 147.168 23.6289V25.9023C147.262 26.4648 147.422 26.9805 147.648 27.4492C147.875 27.918 148.195 28.293 148.609 28.5742C149.031 28.8477 149.57 28.9844 150.227 28.9844C150.734 28.9844 151.168 28.875 151.527 28.6562C151.887 28.4375 152.18 28.1367 152.406 27.7539C152.641 27.3633 152.812 26.9141 152.922 26.4062C153.031 25.8984 153.086 25.3594 153.086 24.7891ZM164.125 18.3203V20.3828H156.977V18.3203H164.125ZM159.039 15.2148H161.863V27.4961C161.863 27.8867 161.918 28.1875 162.027 28.3984C162.145 28.6016 162.305 28.7383 162.508 28.8086C162.711 28.8789 162.949 28.9141 163.223 28.9141C163.418 28.9141 163.605 28.9023 163.785 28.8789C163.965 28.8555 164.109 28.832 164.219 28.8086L164.23 30.9648C163.996 31.0352 163.723 31.0977 163.41 31.1523C163.105 31.207 162.754 31.2344 162.355 31.2344C161.707 31.2344 161.133 31.1211 160.633 30.8945C160.133 30.6602 159.742 30.2812 159.461 29.7578C159.18 29.2344 159.039 28.5391 159.039 27.6719V15.2148Z" fill="white"/>
</svg>
