<svg width="80" height="80" viewBox="0 0 80 80" fill="none" xmlns="http://www.w3.org/2000/svg"> <path d="M18.8534 37.5468C16.3912 37.5406 13.9542 37.0495 11.6817 36.1016C9.40921 35.1536 7.34569 33.7673 5.60895 32.0219C3.87221 30.2764 2.49627 28.206 1.55969 25.9288C0.623103 23.6516 0.144219 21.2122 0.150377 18.7499C0.156534 16.2877 0.647612 13.8507 1.59557 11.5782C2.54354 9.30573 3.92982 7.2422 5.67526 5.50546C7.42071 3.76872 9.49114 2.39278 11.7683 1.4562C14.0455 0.519616 16.4849 0.0407313 18.9472 0.0468889C23.92 0.0593247 28.6842 2.04669 32.1917 5.57177C35.6992 9.09686 37.6627 13.8709 37.6503 18.8437C37.6378 23.8165 35.6505 28.5807 32.1254 32.0882C28.6003 35.5957 23.8262 37.5592 18.8534 37.5468ZM18.7492 79.2133C13.7764 79.2009 9.01226 77.2135 5.50475 73.6884C1.99725 70.1633 0.0337434 65.3893 0.0461791 60.4165C0.0586148 55.4437 2.04598 50.6795 5.57106 47.172C9.09615 43.6645 13.8702 41.701 18.843 41.7134C23.8158 41.7259 28.58 43.7132 32.0875 47.2383C35.595 50.7634 37.5585 55.5375 37.5461 60.5103C37.5336 65.483 35.5463 70.2472 32.0212 73.7547C28.4961 77.2622 23.722 79.2257 18.7492 79.2133ZM60.52 37.651C58.0577 37.6448 55.6207 37.1537 53.3482 36.2058C51.0758 35.2578 49.0122 33.8715 47.2755 32.1261C45.5388 30.3806 44.1628 28.3102 43.2262 26.033C42.2896 23.7558 41.8108 21.3164 41.8169 18.8541C41.8231 16.3919 42.3141 13.9549 43.2621 11.6824C44.2101 9.40992 45.5964 7.3464 47.3418 5.60966C49.0872 3.87292 51.1577 2.49698 53.4349 1.5604C55.7121 0.623814 58.1515 0.144929 60.6137 0.151087C65.5865 0.163522 70.3507 2.15088 73.8582 5.67597C77.3657 9.20106 79.3292 13.9751 79.3168 18.9479C79.3044 23.9207 77.317 28.6849 73.7919 32.1924C70.2668 35.6999 65.4928 37.6634 60.52 37.651ZM60.4158 79.3175C55.443 79.3051 50.6788 77.3177 47.1713 73.7926C43.6638 70.2675 41.7003 65.4935 41.7127 60.5207C41.7251 55.5479 43.7125 50.7837 47.2376 47.2762C50.7627 43.7687 55.5368 41.8052 60.5095 41.8176C65.4823 41.8301 70.2465 43.8174 73.754 47.3425C77.2615 50.8676 79.225 55.6417 79.2126 60.6145C79.2002 65.5872 77.2128 70.3514 73.6877 73.8589C70.1626 77.3664 65.3886 79.3299 60.4158 79.3175Z" fill="white"/> </svg>