<svg width="1728" height="447" viewBox="0 0 1728 447" fill="none" xmlns="http://www.w3.org/2000/svg">
<g opacity="0.75">
<path d="M2402.84 113.987C2402.84 113.987 2086.1 521.893 986.29 355.284C681.619 309.13 637.285 500.829 253.086 429.972C-70.9389 370.212 -398 255.702 -398 255.702" stroke="#FB7797" stroke-miterlimit="10"/>
<path d="M2383.58 114.312C2383.58 114.312 2153.01 408.165 1419.04 391.444C1290.02 388.481 1144.49 376.405 981.551 351.864C681.22 306.554 633.052 492.289 255.415 422.561C-64.123 363.539 -385.811 250.853 -387.19 248.425" stroke="#FB7797" stroke-miterlimit="10"/>
<path d="M2364.33 114.636C2364.33 114.636 2132.34 407.224 1409.7 388.122C1282.57 384.713 1138.35 372.632 976.813 348.443C680.822 303.978 628.822 483.748 257.746 415.148C-57.307 356.866 -373.623 246.004 -376.381 241.147" stroke="#FB7797" stroke-miterlimit="10"/>
<path d="M2345.07 114.958C2345.07 114.958 2111.67 406.283 1400.36 384.8C1275.12 380.946 1132.22 368.859 972.073 345.023C680.423 301.403 624.588 475.21 260.075 407.738C-50.4911 350.193 -361.432 241.155 -365.573 233.869" stroke="#FB7797" stroke-miterlimit="10"/>
<path d="M2325.81 115.283C2325.81 115.283 2091 405.343 1391.02 381.479C1267.68 377.181 1126.09 365.085 967.336 341.602C680.025 298.826 620.359 466.67 262.406 400.325C-43.6736 343.521 -349.242 236.308 -354.763 226.592" stroke="#FB7797" stroke-miterlimit="10"/>
<path d="M2306.55 115.606C2306.55 115.606 2070.32 404.402 1381.67 378.156C1260.23 373.413 1119.96 361.312 962.596 338.181C679.626 296.25 616.125 458.131 264.735 392.914C-36.8577 336.849 -337.053 231.459 -343.954 219.316" stroke="#FB7797" stroke-miterlimit="10"/>
<path d="M2287.29 115.93C2287.29 115.93 2049.65 403.462 1372.33 374.835C1252.79 369.648 1113.83 357.538 957.857 334.761C679.227 293.674 611.893 449.591 267.065 385.503C-30.0397 330.175 -324.864 226.61 -333.144 212.038" stroke="#FB7797" stroke-miterlimit="10"/>
<path d="M2268.03 116.254C2268.03 116.254 2028.98 402.521 1362.99 371.513C1245.34 365.881 1107.7 353.766 953.119 331.34C678.83 291.098 607.662 441.051 269.395 378.091C-23.2256 323.503 -312.676 221.761 -322.335 204.761" stroke="#FB7797" stroke-miterlimit="10"/>
<path d="M2248.78 116.576C2248.78 116.576 2008.31 401.581 1353.65 368.192C1237.89 362.114 1101.56 349.992 948.381 327.919C678.432 288.522 603.431 432.513 271.726 370.68C-16.4064 316.83 -300.483 216.911 -311.523 197.483" stroke="#FB7797" stroke-miterlimit="10"/>
<path d="M2229.52 116.902C2229.52 116.902 1987.64 400.641 1344.31 364.871C1230.45 358.35 1095.43 346.22 943.641 324.5C678.033 285.948 599.198 423.975 274.055 363.27C-9.59041 310.159 -288.295 212.065 -300.715 190.208" stroke="#FB7797" stroke-miterlimit="10"/>
<path d="M2210.26 117.225C2210.26 117.225 1966.97 399.7 1334.97 361.549C1223 354.583 1089.3 342.447 938.904 321.08C677.636 283.372 594.968 415.436 276.386 355.859C-2.77392 303.486 -276.105 207.215 -289.904 182.929" stroke="#FB7797" stroke-miterlimit="10"/>
<path d="M2191 117.548C2191 117.548 1946.3 398.759 1325.62 358.227C1215.55 350.815 1083.17 338.673 934.165 317.658C677.237 280.795 590.735 406.895 278.716 348.446C4.04198 296.813 -263.917 202.367 -279.096 175.652" stroke="#FB7797" stroke-miterlimit="10"/>
<path d="M2171.75 117.872C2171.75 117.872 1925.63 397.819 1316.28 354.906C1208.11 347.05 1077.04 334.901 929.428 314.238C676.84 278.22 586.505 398.357 281.048 341.036C10.8608 290.14 -251.725 197.519 -268.284 168.376" stroke="#FB7797" stroke-miterlimit="10"/>
<path d="M2152.49 118.194C2152.49 118.194 1904.95 396.877 1306.94 351.583C1200.66 343.282 1070.84 331.321 924.687 310.817C676.33 275.974 582.272 389.817 283.376 333.623C17.6755 283.467 -239.538 192.669 -257.477 161.097" stroke="#FB7797" stroke-miterlimit="10"/>
<path d="M2133.23 118.519C2133.23 118.519 1884.28 395.938 1297.6 348.263C1193.21 339.516 1064.71 327.558 919.949 307.397C675.929 273.411 578.04 381.278 285.706 326.213C24.4928 276.795 -227.347 187.821 -246.667 153.821" stroke="#FB7797" stroke-miterlimit="10"/>
<path d="M2113.97 118.842C2113.97 118.842 1863.45 395.752 1288.25 344.94C1185.74 335.884 1058.57 323.792 915.21 303.976C675.527 270.846 573.808 372.738 288.035 318.801C31.3088 270.122 -215.159 182.971 -235.858 146.543" stroke="#FB7797" stroke-miterlimit="10"/>
<path d="M2094.71 119.166C2094.71 119.166 1842.77 394.834 1278.91 341.619C1178.29 332.123 1052.44 320.027 910.471 300.556C675.128 268.28 569.576 364.199 290.366 311.391C38.1261 263.449 -202.968 178.124 -225.048 139.266" stroke="#FB7797" stroke-miterlimit="10"/>
<path d="M2075.45 119.489C2075.45 119.489 1822.08 393.913 1269.57 338.298C1170.84 328.36 1046.31 316.259 905.734 297.135C674.729 265.709 565.345 355.66 292.697 303.979C44.9441 256.776 -190.778 173.274 -214.236 131.988" stroke="#FB7797" stroke-miterlimit="10"/>
<path d="M2056.19 119.813C2056.19 119.813 1801.4 392.985 1260.23 334.977C1163.39 324.597 1040.17 312.491 900.993 293.716C674.329 263.138 561.112 347.122 295.025 296.569C51.7586 250.105 -178.589 168.426 -203.429 124.711" stroke="#FB7797" stroke-miterlimit="10"/>
<path d="M2036.94 120.136C2036.94 120.136 1780.71 392.051 1250.89 331.654C1155.94 320.83 1034.04 308.72 896.255 290.294C673.931 260.563 556.881 338.582 297.356 289.156C58.576 243.43 -166.4 163.577 -192.619 117.434" stroke="#FB7797" stroke-miterlimit="10"/>
<path d="M2017.68 120.46C2017.68 120.46 1760.02 391.114 1241.55 328.332C1148.49 317.064 1027.91 304.948 891.517 286.874C673.535 257.987 552.65 330.042 299.686 281.745C65.3919 236.759 -154.21 158.729 -181.809 110.157" stroke="#FB7797" stroke-miterlimit="10"/>
<path d="M1998.42 120.784C1998.42 120.784 1739.34 390.17 1232.2 325.011C1141.04 313.298 1021.78 301.176 886.78 283.453C673.139 255.407 548.419 321.503 302.017 274.333C72.2099 230.086 -142.019 153.88 -170.999 102.88" stroke="#FB7797" stroke-miterlimit="10"/>
<path d="M1979.16 121.109C1979.16 121.109 1718.66 389.221 1222.86 321.689C1133.59 309.53 1015.65 297.401 882.04 280.033C672.743 252.825 544.186 312.964 304.346 266.923C79.0253 223.415 -129.831 149.032 -160.19 95.6035" stroke="#FB7797" stroke-miterlimit="10"/>
<path d="M1959.9 121.432C1959.9 121.432 1697.97 388.266 1213.52 318.369C1126.15 305.762 1009.52 293.625 877.3 276.614C672.348 250.242 539.954 304.426 306.675 259.512C85.8413 216.741 -117.642 144.185 -149.382 88.3267" stroke="#FB7797" stroke-miterlimit="10"/>
<path d="M1940.64 121.756C1940.64 121.756 1677.3 387.303 1204.18 315.046C1118.7 301.992 1003.39 289.847 872.561 273.192C671.954 247.653 535.721 295.885 309.005 252.1C92.6578 210.069 -105.453 139.335 -138.573 81.0483" stroke="#FB7797" stroke-miterlimit="10"/>
<path d="M1921.39 122.079C1921.39 122.079 1656.62 386.334 1194.84 311.725C1111.25 298.221 997.26 286.067 867.825 269.772C671.562 245.063 531.493 287.346 311.337 244.689C99.4751 203.396 -93.2627 134.486 -127.763 73.771" stroke="#FB7797" stroke-miterlimit="10"/>
<path d="M1902.13 122.402C1902.13 122.402 1635.95 385.356 1185.5 308.403C1103.81 294.447 991.131 282.284 863.087 266.351C671.171 242.47 527.261 278.807 313.668 237.278C106.293 196.724 -81.0724 129.639 -116.953 66.4946" stroke="#FB7797" stroke-miterlimit="10"/>
<path d="M1882.87 122.726C1882.87 122.726 1615.28 384.372 1176.15 305.081C1096.36 290.674 985.001 278.5 858.346 262.93C670.778 239.873 523.026 270.267 315.996 229.866C113.109 190.052 -68.8852 124.79 -106.144 59.2183" stroke="#FB7797" stroke-miterlimit="10"/>
<path d="M1863.61 123.051C1863.61 123.051 1594.61 383.381 1166.81 301.76C1088.91 286.899 978.874 274.714 853.606 259.511C670.387 237.275 518.795 261.729 318.325 222.456C119.925 183.379 -56.6949 119.942 -95.334 51.9414" stroke="#FB7797" stroke-miterlimit="10"/>
<path d="M1844.35 123.374C1844.35 123.374 1573.96 382.38 1157.47 298.439C1081.47 283.122 972.749 270.924 848.869 256.09C669.999 234.672 514.564 253.19 320.656 215.044C126.741 176.706 -44.5057 115.092 -84.5234 44.6636" stroke="#FB7797" stroke-miterlimit="10"/>
<path d="M1825.1 123.697C1825.1 123.697 1553.54 380.889 1148.13 295.117C1074.07 279.254 966.664 266.984 844.131 252.669C669.668 231.855 510.332 244.649 322.987 207.632C133.558 170.033 -32.3155 110.243 -73.7134 37.3848" stroke="#FB7797" stroke-miterlimit="10"/>
<path d="M1805.84 124.02C1805.84 124.02 1532.87 379.948 1138.78 291.795C1066.62 275.488 960.532 263.211 839.391 249.248C669.269 229.279 506.1 236.11 325.316 200.221C140.374 163.359 -20.1267 105.394 -62.9048 30.1079" stroke="#FB7797" stroke-miterlimit="10"/>
<path d="M1786.58 124.344C1786.58 124.344 1512.2 379.006 1129.44 288.472C1059.18 271.72 954.4 259.436 834.653 245.827C668.871 226.702 501.869 227.571 327.647 192.809C147.192 156.687 -7.93644 100.547 -52.0947 22.8315" stroke="#FB7797" stroke-miterlimit="10"/>
<path d="M1767.32 124.668C1767.32 124.668 1491.53 378.067 1120.1 285.152C1051.73 267.955 948.267 255.664 829.913 242.408C668.471 224.128 497.636 219.032 329.975 185.399C154.006 150.016 4.25089 95.6988 -41.2876 15.5552" stroke="#FB7797" stroke-miterlimit="10"/>
<path d="M1762.23 114.818C1762.23 114.818 1470.86 377.127 1110.76 281.829C1044.28 264.188 942.135 251.89 825.177 238.986C668.075 221.55 493.406 210.491 332.307 177.986C160.826 143.341 16.4431 90.8481 -30.4756 8.2749" stroke="#FB7797" stroke-miterlimit="10"/>
<path d="M1760.87 101.889C1760.87 101.889 1450.19 376.186 1101.42 278.509C859.232 210.681 107.142 224.168 -19.6655 1" stroke="#FB7797" stroke-miterlimit="10"/>
</g>
</svg>
