<svg width="30" height="25" viewBox="0 0 30 25" fill="none" xmlns="http://www.w3.org/2000/svg">
<path d="M20.3123 3.09384C19.2039 3.09365 18.1398 3.5286 17.3488 4.30508C16.5579 5.08156 16.1034 6.13752 16.0831 7.24571L16.0423 9.54259C16.0399 9.66591 16.0115 9.78733 15.9589 9.89889C15.9062 10.0105 15.8306 10.1096 15.737 10.1899C15.6434 10.2702 15.5338 10.3298 15.4155 10.3647C15.2972 10.3997 15.1729 10.4093 15.0506 10.3928L12.7742 10.0836C9.77876 9.67529 6.90876 8.29571 4.15543 6.00175C3.28335 10.8288 4.98668 14.1728 9.08897 16.7526L11.6367 18.3538C11.7577 18.4299 11.8583 18.5345 11.9296 18.6584C12.0009 18.7823 12.0407 18.9219 12.0456 19.0647C12.0505 19.2076 12.0203 19.3495 11.9576 19.4781C11.895 19.6066 11.8018 19.7178 11.6863 19.802L9.3646 21.498C10.7456 21.584 12.0567 21.5228 13.1446 21.307C20.025 19.9332 24.5998 14.7561 24.5998 6.21613C24.5998 5.51904 23.124 3.09384 20.3123 3.09384V3.09384ZM13.1665 7.19175C13.1919 5.78599 13.6315 4.41898 14.4302 3.26187C15.2289 2.10476 16.3512 1.20897 17.6566 0.686662C18.9619 0.164356 20.3924 0.0387432 21.7688 0.32555C23.1452 0.612357 24.4065 1.29884 25.3946 2.29904C26.4315 2.29175 27.3138 2.55425 29.2869 1.35842C28.7983 3.75009 28.5577 4.78842 27.5165 6.21613C27.5165 17.3607 20.6667 22.7799 13.7163 24.1668C8.95043 25.1176 2.02043 23.5557 0.0341797 21.482C1.04626 21.4032 5.15876 20.9613 7.53585 19.2215C5.5248 17.8959 -2.47999 13.1855 2.78022 0.521336C5.24918 3.40446 7.75314 5.36738 10.2906 6.40863C11.9794 7.10134 12.3936 7.08675 13.1679 7.19321L13.1665 7.19175Z" fill="#7A68EA"/>
</svg>
