<svg width="18" height="18" viewBox="0 0 18 18" fill="none" xmlns="http://www.w3.org/2000/svg">
<path d="M0 1.995C0 0.893 0.893 0 1.995 0H16.005C17.107 0 18 0.893 18 1.995V16.005C18 16.5341 17.7898 17.0415 17.4157 17.4157C17.0415 17.7898 16.5341 18 16.005 18H1.995C1.46589 18 0.958457 17.7898 0.584322 17.4157C0.210187 17.0415 0 16.5341 0 16.005V1.995ZM3.357 15H14.847C14.2026 14.0734 13.3435 13.3166 12.3431 12.7942C11.3427 12.2717 10.2306 11.9993 9.102 12C7.97338 11.9993 6.86134 12.2717 5.86091 12.7942C4.86048 13.3166 4.00137 14.0734 3.357 15V15ZM9 10C9.45963 10 9.91475 9.90947 10.3394 9.73358C10.764 9.55769 11.1499 9.29988 11.4749 8.97487C11.7999 8.64987 12.0577 8.26403 12.2336 7.83939C12.4095 7.41475 12.5 6.95963 12.5 6.5C12.5 6.04037 12.4095 5.58525 12.2336 5.16061C12.0577 4.73597 11.7999 4.35013 11.4749 4.02513C11.1499 3.70012 10.764 3.44231 10.3394 3.26642C9.91475 3.09053 9.45963 3 9 3C8.07174 3 7.1815 3.36875 6.52513 4.02513C5.86875 4.6815 5.5 5.57174 5.5 6.5C5.5 7.42826 5.86875 8.3185 6.52513 8.97487C7.1815 9.63125 8.07174 10 9 10V10Z" fill="white"/>
</svg>
