<svg width="50" height="50" viewBox="0 0 50 50" fill="none" xmlns="http://www.w3.org/2000/svg">
<path d="M37.1854 24.5998L35.7125 23.1269L15.0875 43.7519H6.25V34.9123L29.8188 11.3415L41.6042 23.1269C41.9947 23.5176 42.2141 24.0474 42.2141 24.5998C42.2141 25.1522 41.9947 25.6821 41.6042 26.0727L26.875 40.804L23.9271 37.8582L37.1854 24.5998V24.5998ZM38.6583 5.44982L44.5521 11.3415C44.9427 11.7322 45.1621 12.262 45.1621 12.8144C45.1621 13.3668 44.9427 13.8966 44.5521 14.2873L41.6042 17.2352L32.7667 8.39565L35.7125 5.44982C36.1032 5.05925 36.633 4.83984 37.1854 4.83984C37.7378 4.83984 38.2677 5.05925 38.6583 5.44982V5.44982Z" fill="white"/>
</svg>
