<svg width="38" height="42" viewBox="0 0 38 42" fill="none" xmlns="http://www.w3.org/2000/svg">
<path d="M37.75 14.7498V39.7353C37.7519 40.0088 37.6999 40.2801 37.597 40.5336C37.4941 40.7871 37.3422 41.0179 37.1501 41.2127C36.958 41.4075 36.7294 41.5626 36.4774 41.669C36.2254 41.7755 35.9548 41.8313 35.6812 41.8332H2.31875C1.77044 41.8332 1.24457 41.6155 0.856659 41.228C0.468753 40.8405 0.250552 40.3148 0.25 39.7665V2.23317C0.25 1.11442 1.18125 0.166504 2.32917 0.166504H23.1667V12.6665C23.1667 13.219 23.3862 13.7489 23.7769 14.1396C24.1676 14.5303 24.6975 14.7498 25.25 14.7498H37.75ZM37.75 10.5832H27.3333V0.172754L37.75 10.5832ZM10.6667 10.5832V14.7498H16.9167V10.5832H10.6667ZM10.6667 18.9165V23.0832H27.3333V18.9165H10.6667ZM10.6667 27.2498V31.4165H27.3333V27.2498H10.6667Z" fill="white"/>
</svg>
