<svg width="50" height="50" viewBox="0 0 50 50" fill="none" xmlns="http://www.w3.org/2000/svg">
<path d="M33.334 8.3335C33.8865 8.3335 34.4164 8.55299 34.8071 8.94369C35.1978 9.33439 35.4173 9.86429 35.4173 10.4168V19.1668L46.2777 11.5627C46.4339 11.4532 46.6171 11.3887 46.8074 11.3762C46.9977 11.3637 47.1878 11.4037 47.3569 11.4918C47.5261 11.5799 47.6678 11.7128 47.7666 11.8759C47.8654 12.039 47.9175 12.2261 47.9173 12.4168V37.5835C47.9175 37.7742 47.8654 37.9613 47.7666 38.1244C47.6678 38.2875 47.5261 38.4204 47.3569 38.5085C47.1878 38.5966 46.9977 38.6366 46.8074 38.6241C46.6171 38.6116 46.4339 38.5471 46.2777 38.4377L35.4173 30.8335V39.5835C35.4173 40.136 35.1978 40.6659 34.8071 41.0566C34.4164 41.4473 33.8865 41.6668 33.334 41.6668H4.16732C3.61478 41.6668 3.08488 41.4473 2.69418 41.0566C2.30348 40.6659 2.08398 40.136 2.08398 39.5835V10.4168C2.08398 9.86429 2.30348 9.33439 2.69418 8.94369C3.08488 8.55299 3.61478 8.3335 4.16732 8.3335H33.334ZM15.4173 18.3939C15.2252 18.3939 15.039 18.4602 14.8902 18.5817C14.7413 18.7032 14.6391 18.8724 14.6007 19.0606L14.584 19.2252V30.771C14.584 30.9059 14.6167 31.0389 14.6794 31.1584C14.7422 31.2779 14.833 31.3803 14.944 31.457C15.0551 31.5336 15.1831 31.5822 15.3171 31.5984C15.4511 31.6146 15.587 31.5981 15.7132 31.5502L15.8652 31.4752L24.9382 25.7002C25.044 25.6324 25.1332 25.5416 25.199 25.4346C25.2648 25.3275 25.3055 25.2069 25.3182 25.0819C25.3308 24.9569 25.315 24.8306 25.2719 24.7125C25.2288 24.5945 25.1596 24.4877 25.0694 24.4002L24.9382 24.296L15.8652 18.521C15.7308 18.4377 15.5755 18.3943 15.4173 18.396V18.3939Z" fill="white"/>
</svg>
