<svg width="42" height="46" viewBox="0 0 42 46" fill="none" xmlns="http://www.w3.org/2000/svg">
<path d="M25.6994 41.2998L20.9994 45.9998L16.2994 41.2998C7.06185 39.1665 0.166016 30.8832 0.166016 20.9998C0.166016 9.49984 9.49935 0.166504 20.9994 0.166504C32.4994 0.166504 41.8327 9.49984 41.8327 20.9998C41.8327 30.8832 34.9369 39.1665 25.6994 41.2998ZM8.54727 28.1165C11.6056 32.679 16.1973 35.5832 21.3327 35.5832C26.466 35.5832 31.0598 32.6811 34.116 28.1165C30.6488 24.8761 26.0784 23.0765 21.3327 23.0832C16.5862 23.076 12.015 24.8756 8.54727 28.1165V28.1165ZM20.9994 18.9165C22.657 18.9165 24.2467 18.258 25.4188 17.0859C26.5909 15.9138 27.2494 14.3241 27.2494 12.6665C27.2494 11.0089 26.5909 9.41919 25.4188 8.24709C24.2467 7.07498 22.657 6.4165 20.9994 6.4165C19.3417 6.4165 17.752 7.07498 16.5799 8.24709C15.4078 9.41919 14.7494 11.0089 14.7494 12.6665C14.7494 14.3241 15.4078 15.9138 16.5799 17.0859C17.752 18.258 19.3417 18.9165 20.9994 18.9165V18.9165Z" fill="white"/>
</svg>
